<?xml version="1.0" encoding="utf-8"?>
<!-- Generator: Adobe Illustrator 24.0.0, SVG Export Plug-In . SVG Version: 6.00 Build 0)  -->
<svg version="1.1" id="Layer_1" xmlns="http://www.w3.org/2000/svg" xmlns:xlink="http://www.w3.org/1999/xlink" x="0px" y="0px"
	 viewBox="0 0 500 500" style="enable-background:new 0 0 500 500;" xml:space="preserve">
<style type="text/css">
	.st0{fill:#2D3958;}
	.st1{fill:#EEC40F;}
	.st2{fill:#FFFFFF;}
</style>
<g>
	<g>
		<path class="st0" d="M250.2,499.2c-137.3,0-249-111.7-249-249s111.7-249,249-249s249,111.7,249,249S387.5,499.2,250.2,499.2z"/>
	</g>
</g>
<polygon class="st1" points="220,262.9 97,385.8 97,262.9 "/>
<polygon class="st1" points="237.6,403.4 237.6,280.4 114.6,403.4 "/>
<polygon class="st2" points="280.5,262.9 403.5,385.8 403.5,262.9 "/>
<polygon class="st2" points="385.9,403.4 262.9,280.4 262.9,403.4 "/>
<polygon class="st2" points="220,237.5 97,114.5 97,237.5 "/>
<polygon class="st2" points="114.6,96.9 237.6,219.9 237.6,96.9 "/>
<polygon class="st1" points="403.5,237.5 403.5,114.5 280.5,237.5 "/>
<polygon class="st1" points="262.9,96.9 262.9,219.9 385.9,96.9 "/>
</svg>
